<?xml version="1.0" encoding="UTF-8" standalone="no"?><!DOCTYPE svg PUBLIC "-//W3C//DTD SVG 1.1//EN" "http://www.w3.org/Graphics/SVG/1.1/DTD/svg11.dtd"><svg width="100%" height="100%" viewBox="0 0 5386 1017" version="1.1" xmlns="http://www.w3.org/2000/svg" xmlns:xlink="http://www.w3.org/1999/xlink" xml:space="preserve" xmlns:serif="http://www.serif.com/" style="fill-rule:evenodd;clip-rule:evenodd;stroke-linejoin:round;stroke-miterlimit:2;"><g><path d="M558.893,660.51l0,-508.085l203.234,0l0,508.085c0,135.489 -84.681,203.234 -254.042,203.234l-203.234,-0l-0,-152.425l203.234,-0c33.872,-0 50.808,-16.937 50.808,-50.809Zm-558.893,0l0,-508.085l203.234,0l-0,508.085c-0,33.872 16.936,50.809 50.808,50.809l0,152.425c-169.361,-0 -254.042,-67.745 -254.042,-203.234Z" style="fill:#b100b1;fill-rule:nonzero;"/><path d="M863.744,-0l762.127,762.127l-0,254.042l-762.127,-762.127l-0,-254.042Zm558.893,487.761l0,-335.336l203.234,0l-0,538.57l-203.234,-203.234Zm-355.659,40.647l-0,335.336l-203.234,-0l-0,-538.57l203.234,203.234Z" style="fill:#fff;fill-rule:nonzero;"/><rect x="1727.49" y="152.425" width="203.234" height="711.319" style="fill:#fff;fill-rule:nonzero;"/><path d="M2235.57,660.51c-0,33.872 16.936,50.809 50.808,50.809l0,152.425c-169.362,-0 -254.042,-67.745 -254.042,-203.234l-0,-304.851c-0,-135.489 84.68,-203.234 254.042,-203.234l203.234,0l-0,152.426l-203.234,-0c-33.872,-0 -50.808,16.936 -50.808,50.808l-0,304.851Zm355.659,-304.851c-0,-33.872 -16.936,-50.808 -50.809,-50.808l0,-152.426c169.362,0 254.043,67.745 254.043,203.234l-0,101.617l-203.234,0l-0,-101.617Zm-50.809,508.085l-203.233,-0l-0,-152.425l203.233,-0c33.873,-0 50.809,-16.937 50.809,-50.809l-0,-101.617l203.234,0l-0,101.617c-0,135.489 -84.681,203.234 -254.043,203.234Z" style="fill:#fff;fill-rule:nonzero;"/><path d="M3454.98,355.659c-0,-33.872 -16.936,-50.808 -50.809,-50.808l0,-152.426c169.362,0 254.043,67.745 254.043,203.234l-0,304.851c-0,135.489 -84.681,203.234 -254.043,203.234l-203.234,-0l0,-152.425l203.234,-0c33.873,-0 50.809,-16.937 50.809,-50.809l-0,-304.851Zm-355.659,304.851c-0,33.872 16.936,50.809 50.808,50.809l-0,152.425c-169.362,-0 -254.042,-67.745 -254.042,-203.234l-0,-304.851c-0,-135.489 84.68,-203.234 254.042,-203.234l203.234,0l-0,152.426l-203.234,-0c-33.872,-0 -50.808,16.936 -50.808,50.808l-0,304.851Z" style="fill:#fff;fill-rule:nonzero;"/><path d="M3963.06,863.744l-203.233,-0l-0,-508.085l203.233,0l0,508.085Zm304.851,-558.893l-508.084,-0l-0,-152.426l508.084,0c169.362,0 254.043,67.745 254.043,203.234l-0,50.809c-0,108.73 -54.535,173.765 -163.604,195.104l163.604,262.172l-254.043,-0l-254.042,-406.468l254.042,0c33.873,0 50.809,-16.936 50.809,-50.808l-0,-50.809c-0,-33.872 -16.936,-50.808 -50.809,-50.808Z" style="fill:#fff;fill-rule:nonzero;"/><path d="M4623.57,-0l762.127,762.127l-0,254.042l-762.127,-762.127l-0,-254.042Zm558.893,487.761l-0,-335.336l203.234,0l-0,538.57l-203.234,-203.234Zm-355.66,40.647l0,335.336l-203.233,-0l-0,-538.57l203.233,203.234Z" style="fill:#fff;fill-rule:nonzero;"/></g></svg>